Coordinates
version=1
nRows=17
nColumns=63
inDegrees=yes

Units are S.I. units (second, meters, Newtons, ...)
If the header above contains a line with 'inDegrees', this indicates whether rotational values are in degrees (yes) or radians (no).

endheader
time	pelvis_tilt	pelvis_list	pelvis_rotation	pelvis_tx	pelvis_ty	pelvis_tz	hip_flexion_r	hip_adduction_r	hip_rotation_r	knee_angle_r	knee_angle_r_beta	ankle_angle_r	subtalar_angle_r	mtp_angle_r	hip_flexion_l	hip_adduction_l	hip_rotation_l	knee_angle_l	knee_angle_l_beta	ankle_angle_l	subtalar_angle_l	mtp_angle_l	L5_S1_Flex_Ext	L5_S1_Lat_Bending	L5_S1_axial_rotation	L4_L5_Flex_Ext	L4_L5_Lat_Bending	L4_L5_axial_rotation	L3_L4_Flex_Ext	L3_L4_Lat_Bending	L3_L4_axial_rotation	L2_L3_Flex_Ext	L2_L3_Lat_Bending	L2_L3_axial_rotation	L1_L2_Flex_Ext	L1_L2_Lat_Bending	L1_L2_axial_rotation	L1_T12_Flex_Ext	L1_T12_Lat_Bending	L1_T12_axial_rotation	Abs_r3	Abs_r2	Abs_r1	Abs_t1	Abs_t2	neck_flexion	neck_bending	neck_rotation	arm_flex_r	arm_add_r	arm_rot_r	elbow_flex_r	pro_sup_r	wrist_flex_r	wrist_dev_r	arm_flex_l	arm_add_l	arm_rot_l	elbow_flex_l	pro_sup_l	wrist_flex_l	wrist_dev_l
1.372881	-6.284615	4.178017	93.224109	0.225679	0.971732	0.500909	-12.599939	-1.170089	-4.949844	2.162737	0.037747	33.513978	3.562832	0.000000	-9.039798	2.063919	-9.268318	6.551001	0.114337	35.182220	10.437486	0.000000	-0.271193	-0.008564	-1.808349	-0.503632	-0.011391	-1.921370	-0.445543	-0.020824	-1.921370	-0.309946	-0.020824	-1.582305	-0.251830	-0.017465	-1.469283	-0.154960	-0.013266	-1.356262	-1.937103	-0.096883	-10.057493	0.000000	0.000000	-11.305163	14.414834	0.588920	40.519300	-1.200711	42.811891	147.741798	74.324713	4.918590	23.645390	10.380853	-19.175395	63.211005	26.037841	89.332848	-24.660642	-2.283815
1.389831	-6.461875	4.427286	93.343117	0.226587	0.972168	0.500465	-12.994076	-1.235411	-4.854802	2.006569	0.035021	33.366065	3.277782	0.000000	-9.442982	2.232686	-8.383137	6.228878	0.108714	34.894057	9.587771	0.000000	-0.267516	-0.020220	-1.750058	-0.496803	-0.026893	-1.859437	-0.439501	-0.049163	-1.859437	-0.305743	-0.049163	-1.531301	-0.248415	-0.041233	-1.421922	-0.152858	-0.031321	-1.312544	-1.910837	-0.228732	-9.733298	0.000000	0.000000	-12.509583	14.431331	1.492199	39.948438	-1.309138	43.049277	147.684805	72.700027	3.792441	24.393018	10.988128	-18.634786	66.855776	25.515209	90.942141	-25.635901	-1.466259
1.406780	-6.625345	4.665404	93.411404	0.227460	0.972568	0.499950	-13.334047	-1.312439	-4.849320	1.931701	0.033715	33.269969	3.124050	0.000000	-9.810538	2.390032	-7.590290	5.960671	0.104033	34.653945	8.778041	0.000000	-0.262689	-0.028238	-1.693051	-0.487839	-0.037557	-1.798866	-0.431571	-0.068658	-1.798866	-0.300227	-0.068658	-1.481419	-0.243933	-0.057583	-1.375604	-0.150100	-0.043741	-1.269788	-1.876359	-0.319435	-9.416240	0.000000	0.000000	-13.882351	14.367896	2.655801	39.399086	-1.386027	43.339196	147.559098	70.830995	2.674935	25.150555	11.547758	-17.880337	72.442125	24.472099	90.344550	-26.138266	-0.746185
1.423729	-6.778759	4.894675	93.435115	0.228285	0.972920	0.499404	-13.622193	-1.404898	-4.953472	1.939283	0.033847	33.246466	3.128316	0.000000	-10.135517	2.535290	-6.931910	5.761850	0.100563	34.481592	8.068580	0.000000	-0.257834	-0.033363	-1.638389	-0.478824	-0.044373	-1.740789	-0.423596	-0.081119	-1.740789	-0.294679	-0.081119	-1.433591	-0.239425	-0.068034	-1.331191	-0.147326	-0.051679	-1.228792	-1.841684	-0.377410	-9.112230	0.000000	0.000000	-15.353223	14.251512	3.991509	38.885865	-1.442241	43.706063	147.386597	68.847887	1.505043	25.841553	12.062703	-16.961971	79.557869	22.992523	87.717004	-26.167130	-0.194316
1.440678	-6.926068	5.113835	93.405064	0.229053	0.973208	0.498854	-13.852838	-1.522958	-5.148701	2.040057	0.035606	33.308353	3.284854	0.000000	-10.420952	2.677034	-6.420998	5.623088	0.098141	34.372231	7.470082	0.000000	-0.253287	-0.035479	-1.586790	-0.470379	-0.047187	-1.685964	-0.416125	-0.086264	-1.685964	-0.289482	-0.086264	-1.388441	-0.235202	-0.072349	-1.289266	-0.144728	-0.054957	-1.190092	-1.809203	-0.401347	-8.825247	0.000000	0.000000	-16.849921	14.062115	5.484600	38.422050	-1.477458	44.147303	147.160865	66.842879	0.376253	26.416738	12.524354	-15.925873	87.823518	21.159851	83.282581	-25.769607	0.144812
1.457627	-7.056616	5.329383	93.339478	0.229740	0.973437	0.498316	-14.059580	-1.644953	-5.422738	2.183155	0.038103	33.413080	3.564271	0.000000	-10.666374	2.798870	-6.065412	5.564424	0.097118	34.349173	7.003940	0.000000	-0.250320	-0.034137	-1.536464	-0.464869	-0.045402	-1.632493	-0.411250	-0.083000	-1.632493	-0.286090	-0.083000	-1.344406	-0.232447	-0.069612	-1.248377	-0.143033	-0.052878	-1.152348	-1.788008	-0.386163	-8.545352	0.000000	0.000000	-18.338151	13.895725	7.084833	38.017919	-1.525212	44.638050	146.916469	64.850434	-0.688203	26.907391	12.962514	-14.808777	97.045340	19.049831	77.490082	-24.997325	0.252281
1.474576	-7.187706	5.536184	93.234741	0.230356	0.973607	0.497808	-14.226370	-1.792838	-5.736841	2.398791	0.041867	33.567153	3.907339	0.000000	-10.881640	2.922257	-5.878368	5.560519	0.097049	34.388654	6.691652	0.000000	-0.248205	-0.031074	-1.487998	-0.460942	-0.041329	-1.580998	-0.407777	-0.075554	-1.580998	-0.283674	-0.075554	-1.301998	-0.230484	-0.063367	-1.208999	-0.141825	-0.048134	-1.115999	-1.772906	-0.351520	-8.275800	0.000000	0.000000	-19.776515	13.667803	8.735319	37.653380	-1.571877	45.167325	146.659373	62.955367	-1.673768	27.350630	13.369716	-13.645570	106.942156	16.748642	70.732644	-24.037497	0.230591
1.491525	-7.301175	5.731554	93.079659	0.230895	0.973709	0.497356	-14.355464	-1.950616	-6.059721	2.669156	0.046586	33.738130	4.283690	0.000000	-11.071315	3.034321	-5.896410	5.600894	0.097754	34.479691	6.552562	0.000000	-0.247707	-0.023547	-1.442225	-0.460017	-0.031318	-1.532365	-0.406959	-0.057253	-1.532365	-0.283105	-0.057253	-1.261947	-0.230021	-0.048018	-1.171808	-0.141540	-0.036475	-1.081669	-1.769349	-0.266374	-8.021225	0.000000	0.000000	-21.134986	13.316919	10.408620	37.363645	-1.631287	45.739336	146.396826	61.416742	-2.552447	27.715824	13.728628	-12.461280	117.164366	14.320452	63.194335	-23.083870	-0.034180
1.508475	-7.395041	5.908556	92.885084	0.231342	0.973735	0.496968	-14.440879	-2.116166	-6.425425	2.998226	0.052329	33.910393	4.711071	0.000000	-11.239639	3.138528	-6.033490	5.665625	0.098884	34.587496	6.470377	0.000000	-0.248665	-0.011375	-1.406606	-0.461796	-0.015129	-1.494519	-0.408532	-0.027657	-1.494519	-0.284200	-0.027657	-1.230780	-0.230911	-0.023196	-1.142867	-0.142087	-0.017620	-1.054954	-1.776191	-0.128675	-7.823120	0.000000	0.000000	-22.371370	12.824170	12.069541	37.153946	-1.690043	46.340041	146.108084	59.972750	-3.215105	28.029680	14.013719	-11.300035	127.321022	11.858287	55.152551	-22.280818	-0.577167
1.525424	-7.470820	6.062163	92.668302	0.231702	0.973693	0.496654	-14.482173	-2.284222	-6.832682	3.378224	0.058961	34.067796	5.164523	0.000000	-11.388028	3.232132	-6.273120	5.743570	0.100244	34.689206	6.453370	0.000000	-0.251537	0.005144	-1.384303	-0.467130	0.006841	-1.470822	-0.413251	0.012506	-1.470822	-0.287482	0.012506	-1.211265	-0.233578	0.010489	-1.124746	-0.143728	0.007968	-1.038227	-1.796706	0.058187	-7.699077	0.000000	0.000000	-23.440813	12.164706	13.668854	37.017379	-1.737248	46.970447	145.806098	58.708198	-3.699978	28.290162	14.226533	-10.176661	137.182109	9.415598	46.878456	-21.702889	-1.306021
1.542373	-7.529278	6.183701	92.437343	0.231980	0.973586	0.496411	-14.475230	-2.451412	-7.296534	3.796811	0.066267	34.210541	5.663891	0.000000	-11.518005	3.319169	-6.579641	5.809072	0.101387	34.765236	6.476299	0.000000	-0.255488	0.025416	-1.377080	-0.474466	0.033804	-1.463147	-0.419740	0.061797	-1.463147	-0.291997	0.061797	-1.204945	-0.237246	0.051829	-1.118877	-0.145986	0.039370	-1.032810	-1.824922	0.287513	-7.658905	0.000000	0.000000	-24.331505	11.314544	15.101470	36.934332	-1.761741	47.620381	145.494590	57.563932	-4.018245	28.496654	14.369414	-9.123797	146.489999	7.071707	38.568330	-21.427612	-2.167980
1.559322	-7.579796	6.267986	92.211958	0.232181	0.973422	0.496257	-14.418241	-2.619048	-7.815300	4.242725	0.074050	34.354471	6.201455	0.000000	-11.632597	3.416758	-6.753978	5.827101	0.101702	34.773629	6.328309	0.000000	-0.260471	0.048272	-1.385504	-0.483720	0.064201	-1.472098	-0.427927	0.117368	-1.472098	-0.297692	0.117368	-1.212316	-0.241873	0.098436	-1.125722	-0.148833	0.074773	-1.039128	-1.860517	0.546059	-7.705759	0.000000	0.000000	-25.017085	10.299645	16.391636	36.901940	-1.748091	48.282097	145.175220	56.494569	-4.180566	28.658074	14.489611	-8.161722	155.184484	4.867016	30.282461	-21.395280	-3.127626
1.576271	-7.622106	6.316092	92.009881	0.232349	0.973233	0.496170	-14.328822	-2.771388	-8.337395	4.676863	0.081627	34.486758	6.712725	0.000000	-11.729939	3.508987	-6.878343	5.797820	0.101191	34.742651	6.184071	0.000000	-0.266193	0.071777	-1.407370	-0.494347	0.095464	-1.495330	-0.437329	0.174519	-1.495330	-0.304232	0.174519	-1.231449	-0.247187	0.146368	-1.143488	-0.152103	0.111183	-1.055527	-1.901391	0.811959	-7.827368	0.000000	0.000000	-25.515443	9.186144	17.442669	36.879305	-1.703398	48.919685	144.862512	55.446899	-4.135453	28.762566	14.559381	-7.326552	162.780639	2.907380	22.435764	-21.505365	-4.101725
1.593220	-7.682899	6.317173	91.826815	0.232553	0.973025	0.496148	-14.191963	-2.935752	-8.887423	5.097981	0.088977	34.632691	7.251130	0.000000	-11.802300	3.622384	-6.960609	5.698898	0.099465	34.672202	6.088657	0.000000	-0.270819	0.091228	-1.435064	-0.502937	0.121334	-1.524756	-0.444928	0.221812	-1.524756	-0.309519	0.221812	-1.255681	-0.251482	0.186033	-1.165990	-0.154746	0.141313	-1.076298	-1.934431	1.031992	-7.981397	0.000000	0.000000	-25.835946	8.056297	18.232389	36.828486	-1.636098	49.526932	144.597797	54.703680	-3.944376	28.767474	14.581584	-6.653540	168.972170	1.256034	15.334242	-21.722963	-5.088115
1.610169	-7.757172	6.278148	91.663144	0.232842	0.972831	0.496172	-14.023120	-3.099928	-9.451272	5.477017	0.095592	34.784609	7.831743	0.000000	-11.850279	3.747502	-6.990350	5.535598	0.096614	34.580783	6.051515	0.000000	-0.275285	0.105722	-1.461753	-0.511232	0.140610	-1.553113	-0.452266	0.257053	-1.553113	-0.314623	0.257053	-1.279034	-0.255630	0.215589	-1.187674	-0.157298	0.163764	-1.096315	-1.966334	1.195950	-8.129832	0.000000	0.000000	-25.993082	6.990311	18.720404	36.730455	-1.567104	50.068007	144.399275	54.220791	-3.542029	28.677982	14.572503	-6.167240	173.488046	-0.020568	9.261025	-21.983510	-6.063521
1.627119	-7.845680	6.197124	91.505285	0.233247	0.972660	0.496242	-13.820078	-3.264388	-9.999028	5.797803	0.101191	34.936226	8.452674	0.000000	-11.869049	3.886394	-6.966212	5.306333	0.092613	34.472469	6.062024	0.000000	-0.279654	0.114601	-1.479390	-0.519345	0.152419	-1.571851	-0.459443	0.278640	-1.571851	-0.319616	0.278640	-1.294466	-0.259687	0.233694	-1.202004	-0.159794	0.177516	-1.109542	-1.997539	1.296385	-8.227921	0.000000	0.000000	-25.984599	6.048217	18.908650	36.576134	-1.523796	50.543251	144.307177	54.172188	-3.044767	28.494657	14.554199	-5.884984	176.133122	-0.861763	4.496738	-22.229087	-6.972647
1.644068	-7.931793	6.081749	91.356196	0.233732	0.972528	0.496376	-13.594851	-3.406025	-10.375307	6.038342	0.105389	35.043470	8.935785	0.000000	-11.864084	4.025946	-6.825658	5.014590	0.087521	34.336107	6.013700	0.000000	-0.285859	0.119844	-1.481185	-0.530869	0.159392	-1.573759	-0.469638	0.291388	-1.573759	-0.326708	0.291388	-1.296037	-0.265449	0.244385	-1.203463	-0.163340	0.185638	-1.110889	-2.041864	1.355695	-8.237908	0.000000	0.000000	-25.784018	5.262376	18.748036	36.389763	-1.547867	50.953836	144.350657	54.159840	-2.649151	28.290747	14.604551	-5.772294	177.015288	-1.280877	1.318960	-22.507013	-7.698162
